<svg width="15" height="14" viewBox="0 0 15 14" fill="none" xmlns="http://www.w3.org/2000/svg">
<path id="Vector" d="M6.74909 12.4028L6.74837 12.4021C4.80729 10.6419 3.2364 9.21452 2.14494 7.87919C1.05898 6.55059 0.5 5.37437 0.5 4.125C0.5 2.08424 2.09055 0.5 4.125 0.5C5.27885 0.5 6.39456 1.03973 7.12058 1.88564L7.5 2.32771L7.87942 1.88564C8.60544 1.03973 9.72115 0.5 10.875 0.5C12.9095 0.5 14.5 2.08424 14.5 4.125C14.5 5.37437 13.941 6.55059 12.8551 7.87919C11.7636 9.21452 10.1927 10.6419 8.25163 12.4021L8.25091 12.4028L7.5 13.0863L6.74909 12.4028Z" stroke="#BB1D1E"/>
</svg>
