<svg width="127" height="147" viewBox="0 0 127 147" fill="none" xmlns="http://www.w3.org/2000/svg">
<path id="Vector" d="M31.9897 19.1608C36.0263 12.1169 42.3037 6.632 49.8185 3.58292C57.3332 0.53383 65.6514 0.0965785 73.4434 2.34106C81.2354 4.58553 88.0513 9.38215 92.8017 15.9642C97.5521 22.5462 99.9626 30.5336 99.648 38.6497C99.3334 46.7658 96.3117 54.5418 91.0661 60.735C85.8205 66.9281 78.6538 71.1808 70.7115 72.8131C62.7692 74.4455 54.5099 73.3633 47.2538 69.7395C39.9978 66.1158 34.1639 60.1598 30.6847 52.8234C28.3602 54.5269 25.5537 55.4429 22.6737 55.438H18.1426V57.753C18.1426 59.4779 18.7951 61.0484 19.8644 62.2377C20.7782 61.2029 21.985 60.4714 23.3241 60.1408C24.6632 59.8102 26.0711 59.8961 27.3602 60.3871C28.6494 60.878 29.7587 61.7507 30.5404 62.889C31.3221 64.0273 31.7391 65.3771 31.7359 66.7588C31.7352 67.7076 31.5366 68.6458 31.1527 69.5133C30.7689 70.3807 30.2083 71.1582 29.5069 71.7959C28.8055 72.4335 27.9788 72.9173 27.0799 73.2161C26.1809 73.515 25.2295 73.6223 24.2868 73.5312C20.2053 73.3877 16.3388 71.6625 13.5021 68.7192C10.6655 65.7758 9.08018 61.8443 9.08035 57.753V23.6909C9.08035 22.487 9.55773 21.3325 10.4075 20.4812C11.2572 19.63 12.4097 19.1517 13.6115 19.1517H31.7359L31.9897 19.1608ZM36.267 38.3253C36.5493 45.4493 39.609 52.1784 44.7889 57.0676C49.9689 61.9567 56.8561 64.6161 63.9716 64.4747C71.0872 64.3333 77.8636 61.4023 82.8459 56.3111C87.8282 51.2199 90.619 44.3746 90.619 37.2449C90.619 30.1153 87.8282 23.2699 82.8459 18.1788C77.8636 13.0876 71.0872 10.1566 63.9716 10.0152C56.8561 9.87373 49.9689 12.5331 44.7889 17.4223C39.609 22.3115 36.5493 29.0406 36.267 36.1646V38.3253ZM27.2048 35.9921V28.2301H18.1426V46.3596H22.6737C23.8754 46.3596 25.0279 45.8814 25.8777 45.0301C26.7274 44.1789 27.2048 43.0243 27.2048 41.8204V38.4978C27.1766 37.6628 27.1766 36.8271 27.2048 35.9921ZM0 100.794C0 90.6894 8.18319 82.6368 18.206 82.6368H108.747C113.554 82.6368 118.164 84.5498 121.563 87.9548C124.962 91.3599 126.871 95.9781 126.871 100.794C126.871 116.145 119.322 127.72 107.523 135.264C95.9055 142.681 80.246 146.185 63.4356 146.185C46.6251 146.185 30.9656 142.681 19.3479 135.264C7.54883 127.729 0 116.136 0 100.794ZM18.206 91.7152C13.1221 91.7152 9.06222 95.7732 9.06222 100.794C9.06222 112.677 14.6989 121.529 24.2233 127.602C33.9199 133.803 47.7126 137.107 63.4356 137.107C79.1585 137.107 92.9512 133.803 102.648 127.602C112.163 121.52 117.809 112.686 117.809 100.794C117.809 98.3859 116.854 96.0767 115.155 94.3742C113.455 92.6717 111.15 91.7152 108.747 91.7152H18.206Z" fill="#BB1D1E"/>
</svg>
