<svg width="47" height="45" viewBox="0 0 47 45" fill="none" xmlns="http://www.w3.org/2000/svg">
<path id="Vector" d="M14.0218 0H33.195C40.499 0 46.4336 5.85 46.4336 13.05V31.95C46.4336 35.4111 45.0388 38.7304 42.5561 41.1777C40.0734 43.6251 36.7061 45 33.195 45H14.0218C6.71775 45 0.783203 39.15 0.783203 31.95V13.05C0.783203 9.58893 2.17798 6.26961 4.6607 3.82226C7.14342 1.37491 10.5107 0 14.0218 0ZM13.5653 4.5C11.386 4.5 9.29596 5.35339 7.75496 6.87244C6.21396 8.39148 5.34824 10.4517 5.34824 12.6V32.4C5.34824 36.8775 9.02309 40.5 13.5653 40.5H33.6515C35.8308 40.5 37.9208 39.6466 39.4618 38.1276C41.0028 36.6085 41.8685 34.5483 41.8685 32.4V12.6C41.8685 8.1225 38.1937 4.5 33.6515 4.5H13.5653ZM35.5916 7.875C36.3483 7.875 37.074 8.17132 37.6091 8.69876C38.1442 9.22621 38.4448 9.94158 38.4448 10.6875C38.4448 11.4334 38.1442 12.1488 37.6091 12.6762C37.074 13.2037 36.3483 13.5 35.5916 13.5C34.8349 13.5 34.1092 13.2037 33.5741 12.6762C33.0391 12.1488 32.7385 11.4334 32.7385 10.6875C32.7385 9.94158 33.0391 9.22621 33.5741 8.69876C34.1092 8.17132 34.8349 7.875 35.5916 7.875ZM23.6084 11.25C26.6352 11.25 29.538 12.4353 31.6783 14.545C33.8186 16.6548 35.021 19.5163 35.021 22.5C35.021 25.4837 33.8186 28.3452 31.6783 30.455C29.538 32.5647 26.6352 33.75 23.6084 33.75C20.5816 33.75 17.6787 32.5647 15.5385 30.455C13.3982 28.3452 12.1958 25.4837 12.1958 22.5C12.1958 19.5163 13.3982 16.6548 15.5385 14.545C17.6787 12.4353 20.5816 11.25 23.6084 11.25ZM23.6084 15.75C21.7923 15.75 20.0506 16.4612 18.7664 17.727C17.4823 18.9929 16.7608 20.7098 16.7608 22.5C16.7608 24.2902 17.4823 26.0071 18.7664 27.273C20.0506 28.5388 21.7923 29.25 23.6084 29.25C25.4245 29.25 27.1662 28.5388 28.4503 27.273C29.7345 26.0071 30.4559 24.2902 30.4559 22.5C30.4559 20.7098 29.7345 18.9929 28.4503 17.727C27.1662 16.4612 25.4245 15.75 23.6084 15.75Z" fill="white"/>
</svg>
