<svg width="145" height="116" viewBox="0 0 145 116" fill="none" xmlns="http://www.w3.org/2000/svg">
<g id="Group 47">
<path id="Vector" d="M10.3572 52.8337H72.5004V63.2093H10.3572V52.8337ZM0 26.8945H51.786V37.2702H0V26.8945Z" fill="#BB1D1E"/>
<path id="Vector_2" d="M144.581 55.9775L129.045 19.6626C128.646 18.7292 127.983 17.9337 127.137 17.3748C126.29 16.8159 125.299 16.5183 124.286 16.5188H108.75V6.14315C108.75 4.76725 108.204 3.44771 107.233 2.4748C106.262 1.5019 104.945 0.955322 103.571 0.955322H20.7137V11.331H98.3927V76.4694C96.033 77.8421 93.9679 79.6691 92.3165 81.8453C90.665 84.0214 89.46 86.5035 88.7709 89.1484H56.2285C54.9681 84.2581 51.9706 79.9961 47.7977 77.1614C43.6249 74.3267 38.5634 73.1139 33.5618 73.7504C28.5603 74.3868 23.9621 76.8287 20.6292 80.6185C17.2963 84.4082 15.4575 89.2855 15.4575 94.3363C15.4575 99.387 17.2963 104.264 20.6292 108.054C23.9621 111.844 28.5603 114.286 33.5618 114.922C38.5634 115.559 43.6249 114.346 47.7977 111.511C51.9706 108.676 54.9681 104.414 56.2285 99.5241H88.7709C89.8974 103.977 92.4737 107.925 96.0923 110.746C99.7108 113.567 104.165 115.099 108.75 115.099C113.335 115.099 117.789 113.567 121.408 110.746C125.026 107.925 127.602 103.977 128.729 99.5241H139.822C141.195 99.5241 142.512 98.9775 143.483 98.0046C144.455 97.0317 145 95.7122 145 94.3363V58.0215C145 57.3187 144.858 56.6232 144.581 55.9775ZM36.2495 104.712C34.201 104.712 32.1986 104.103 30.4954 102.963C28.7921 101.823 27.4646 100.203 26.6807 98.3069C25.8968 96.411 25.6917 94.3248 26.0913 92.3121C26.491 90.2994 27.4774 88.4506 28.9259 86.9996C30.3743 85.5485 32.2198 84.5603 34.2289 84.16C36.238 83.7596 38.3205 83.9651 40.213 84.7504C42.1056 85.5357 43.7231 86.8656 44.8612 88.5719C45.9993 90.2781 46.6067 92.2842 46.6067 94.3363C46.604 97.0872 45.5119 99.7247 43.5701 101.67C41.6284 103.615 38.9956 104.709 36.2495 104.712ZM108.75 26.8945H120.868L131.971 52.8336H108.75V26.8945ZM108.75 104.712C106.701 104.712 104.699 104.103 102.996 102.963C101.293 101.823 99.965 100.203 99.1811 98.3069C98.3972 96.411 98.1921 94.3248 98.5917 92.3121C98.9914 90.2994 99.9778 88.4506 101.426 86.9996C102.875 85.5485 104.72 84.5603 106.729 84.16C108.738 83.7596 110.821 83.9651 112.713 84.7504C114.606 85.5357 116.224 86.8656 117.362 88.5719C118.5 90.2781 119.107 92.2842 119.107 94.3363C119.104 97.0872 118.012 99.7247 116.071 101.67C114.129 103.615 111.496 104.709 108.75 104.712ZM134.643 89.1484H128.729C127.588 84.7047 125.008 80.7658 121.392 77.9493C117.776 75.1327 113.33 73.5977 108.75 73.585V63.2093H134.643V89.1484Z" fill="#BB1D1E"/>
</g>
</svg>
