<svg width="46" height="45" viewBox="0 0 46 45" fill="none" xmlns="http://www.w3.org/2000/svg">
<path id="Vector" d="M22.8252 0C10.2257 0 0 10.08 0 22.5C0 34.92 10.2257 45 22.8252 45C35.4247 45 45.6504 34.92 45.6504 22.5C45.6504 10.08 35.4247 0 22.8252 0ZM33.4161 15.3C33.0737 18.855 31.5901 27.495 30.8368 31.4775C30.5173 33.165 29.8782 33.7275 29.2847 33.795C27.9608 33.9075 26.9565 32.94 25.6783 32.1075C23.6697 30.8025 22.5285 29.9925 20.5883 28.7325C18.3286 27.27 19.7894 26.46 21.0905 25.155C21.4328 24.8175 27.2761 19.575 27.3902 19.1025C27.4061 19.0309 27.404 18.9566 27.3841 18.8861C27.3642 18.8155 27.3271 18.7508 27.2761 18.6975C27.1391 18.585 26.9565 18.63 26.7968 18.6525C26.5913 18.6975 23.3958 20.79 17.1645 24.93C16.2515 25.5375 15.4298 25.8525 14.6994 25.83C13.8777 25.8075 12.3256 25.38 11.1615 24.9975C9.72353 24.5475 8.60509 24.3 8.69639 23.5125C8.74204 23.1075 9.31267 22.7025 10.3855 22.275C17.0504 19.4175 21.4785 17.5275 23.6925 16.6275C30.0379 14.0175 31.339 13.5675 32.2063 13.5675C32.3889 13.5675 32.8226 13.6125 33.0965 13.8375C33.3248 14.0175 33.3932 14.265 33.4161 14.445C33.3932 14.58 33.4389 14.985 33.4161 15.3Z" fill="white"/>
</svg>
