<svg width="46" height="31" viewBox="0 0 46 31" fill="none" xmlns="http://www.w3.org/2000/svg">
<path id="Vector" d="M18.6098 21.5501L30.456 15.1688L18.6098 8.78746V21.5501ZM44.9957 4.89486C45.2924 5.8946 45.4978 7.23467 45.6348 8.93635C45.7945 10.638 45.863 12.1057 45.863 13.382L46 15.1688C46 19.8271 45.6348 23.2517 44.9957 25.4427C44.425 27.357 43.1012 28.5908 41.0469 29.1225C39.9741 29.3991 38.0112 29.5905 34.9982 29.7181C32.031 29.867 29.3148 29.9308 26.804 29.9308L23.1748 30.0585C13.611 30.0585 7.65367 29.7181 5.30267 29.1225C3.24841 28.5908 1.92455 27.357 1.35392 25.4427C1.05719 24.4429 0.851764 23.1028 0.714812 21.4012C0.555036 19.6995 0.48656 18.2318 0.48656 16.9555L0.349609 15.1688C0.349609 10.5104 0.714812 7.08578 1.35392 4.89486C1.92455 2.98047 3.24841 1.74675 5.30267 1.21498C6.37546 0.938454 8.33842 0.747015 11.3513 0.619389C14.3186 0.470491 17.0348 0.406679 19.5456 0.406679L23.1748 0.279053C32.7385 0.279053 38.6959 0.619389 41.0469 1.21498C43.1012 1.74675 44.425 2.98047 44.9957 4.89486Z" fill="white"/>
</svg>
